<?xml version="1.0" standalone="no"?>
<!DOCTYPE svg PUBLIC "-//W3C//DTD SVG 20010904//EN"
 "http://www.w3.org/TR/2001/REC-SVG-20010904/DTD/svg10.dtd">
<svg version="1.0" xmlns="http://www.w3.org/2000/svg"
 width="900.000000pt" height="900.000000pt" viewBox="0 0 900.000000 900.000000"
 preserveAspectRatio="xMidYMid meet">

<g transform="translate(0.000000,900.000000) scale(0.100000,-0.100000)"
fill="#000000" stroke="none">
<path d="M4346 8623 c-198 -42 -250 -81 -681 -512 l-360 -361 415 -415 416
-416 64 30 c104 49 182 65 305 65 133 -1 208 -18 325 -76 121 -60 249 -188
307 -308 59 -120 76 -194 77 -325 0 -123 -16 -200 -65 -305 l-30 -64 409 -408
408 -409 64 30 c104 49 182 65 305 65 133 -1 208 -18 325 -76 121 -60 248
-188 308 -308 49 -99 70 -175 79 -282 25 -312 -179 -621 -476 -724 -110 -38
-214 -50 -318 -37 -186 24 -301 81 -433 213 -141 140 -203 291 -204 495 0 123
16 201 65 305 l30 64 -409 409 -409 409 -49 -25 c-27 -14 -68 -30 -91 -37
l-43 -13 0 -1107 0 -1107 43 -12 c77 -23 195 -92 261 -152 340 -311 305 -847
-72 -1116 -237 -170 -557 -175 -804 -14 -285 186 -399 542 -277 862 74 191
257 364 447 420 l42 12 0 1107 0 1107 -42 12 c-166 49 -339 196 -415 351 -59
119 -76 194 -77 325 0 123 16 200 65 305 l30 64 -416 416 -415 415 -1261
-1260 c-889 -889 -1273 -1280 -1305 -1327 -90 -134 -131 -287 -121 -448 10
-151 43 -250 123 -370 30 -46 564 -585 1811 -1831 l1768 -1766 90 -46 c131
-66 195 -81 350 -81 121 0 137 2 224 32 52 18 122 49 155 69 89 52 3565 3525
3635 3631 29 43 62 112 82 170 30 89 33 107 33 222 1 170 -28 278 -111 409
-44 70 -3509 3541 -3601 3608 -157 113 -380 159 -576 116z"/>
</g>
</svg>
