<svg width="527" height="563" viewBox="0 0 527 563" fill="none" xmlns="http://www.w3.org/2000/svg">
<path d="M246.333 2.73356C231.8 8.20023 226.867 13.4002 211.4 39.0002C205.933 48.2002 194.6 66.7336 186.333 80.3336C162.333 119.667 101 222.6 82.0665 255.667C63.5332 287.8 47.3999 315.534 31.2665 342.867C9.26653 380.334 2.46653 393.934 0.866527 403.8C-2.46681 425.4 8.59986 444.067 29.9332 452.6C37.6665 455.534 38.1999 455.667 115 456.334L192.333 457V483.134C192.333 512.467 192.2 512.867 183.267 514.334C163.667 517.667 146.6 531.4 142.2 547.267C140.6 553.4 142.067 556.734 147.667 559.667C153.533 562.734 225.933 562.6 231.8 559.534C239.667 555.534 240.067 552.867 239 502.867L238.067 457.934L240.867 456.334C243.667 454.867 279.533 454.6 283.4 455.934C284.6 456.467 285 467.8 285 506.467C285 555.534 285 556.334 287.8 558.867C290.467 561.267 293 561.534 325.533 561.934C367.933 562.467 374.733 561.934 378.6 557.934C382.733 553.934 382.333 546.2 377.933 538.6C371.667 527.934 360.333 520.2 344.333 515.667C339.933 514.467 335.667 512.734 334.733 511.8C333 510.067 332.333 499 332.733 473.934L333 456.334H396.733C431.667 456.334 467.667 455.667 476.6 455.134C497.133 453.534 505.933 450.067 515.667 439.534C524.333 429.934 526.867 422.334 526.067 407.134C525.533 394.734 523 387.934 513.133 371C510.333 366.2 502.067 352.067 494.733 339.667C487.4 327.134 472.733 302.334 462.333 284.334C440.333 246.467 414.067 203 369.133 130.067C344.6 90.4669 316.6 44.7336 308.467 31.0002C300.333 17.4002 291.933 8.73356 283 4.33356C274.067 0.0668978 255.267 -0.733102 246.333 2.73356ZM222.333 187.667C226.733 196.334 227.933 218.6 224.333 227.8C219.8 239.934 212.6 244.467 204.867 240.334C197.4 236.334 192.067 219.267 193.533 204.334C196.067 179.534 213 169.667 222.333 187.667ZM320.067 183C325.533 189.4 327 195.667 326.867 211.667C326.867 227 325.4 231.934 319.267 238.6C315.533 242.734 307.8 242.734 303.933 238.6C291.933 225.8 291.8 193.534 303.8 181.534C307.933 177.4 315.933 178.067 320.067 183Z" fill="black"/>
</svg>
