<?xml version="1.0" standalone="no"?>
<!DOCTYPE svg PUBLIC "-//W3C//DTD SVG 20010904//EN"
 "http://www.w3.org/TR/2001/REC-SVG-20010904/DTD/svg10.dtd">
<svg version="1.0" xmlns="http://www.w3.org/2000/svg"
 width="1570.000000pt" height="3362.000000pt" viewBox="0 0 1570.000000 3362.000000"
 preserveAspectRatio="xMidYMid meet">

<g transform="translate(0.000000,3362.000000) scale(0.100000,-0.100000)"
fill="#000000" stroke="none">
<path d="M7813 33603 c-11 -10 -53 -65 -94 -123 -127 -182 -634 -873 -858
-1170 -607 -806 -1091 -1420 -1706 -2165 -258 -313 -409 -506 -700 -895 -2632
-3523 -4116 -7078 -4404 -10550 -35 -423 -42 -563 -48 -1010 -13 -974 54
-1871 208 -2785 439 -2605 1567 -5141 3323 -7470 879 -1165 1960 -2315 2981
-3171 162 -136 286 -232 370 -288 l71 -46 17 -253 c55 -784 177 -2111 315
-3407 l27 -255 522 -3 522 -2 6 32 c16 96 156 1436 215 2058 65 698 102 1139
146 1738 l7 92 131 102 c689 536 1399 1203 2097 1968 1812 1989 3142 4200
3926 6525 796 2362 1003 4748 628 7241 -204 1352 -600 2753 -1170 4134 -440
1067 -1033 2218 -1683 3270 -638 1032 -1448 2171 -2087 2935 -774 925 -1862
2340 -2603 3387 -96 135 -116 149 -159 111z m71 -11745 c3 -35 69 -1485 146
-3223 78 -1738 246 -5507 374 -8375 l234 -5215 -66 -85 c-110 -142 -694 -710
-730 -710 -15 0 -245 210 -441 404 -219 216 -340 357 -354 414 -3 13 12 406
34 875 21 469 126 2796 234 5172 107 2376 261 5757 340 7513 80 1756 145 3210
145 3232 0 50 30 86 59 70 15 -7 21 -25 25 -72z"/>
</g>
</svg>
