<svg width="1667" height="334" viewBox="0 0 1667 334" fill="none" xmlns="http://www.w3.org/2000/svg">
<path d="M190.836 9.07608H302.857V327.193H192.836L115.222 171.538V327.193H0V9.07608H123.223L190.836 124.796V9.07608Z" fill="#FFFFEB"/>
<path d="M990.673 153.386H878.652V133.418C878.652 124.796 875.852 116.628 870.651 110.728C865.05 104.829 857.848 101.198 850.647 101.198H819.841C812.24 101.198 805.038 104.829 799.837 110.728C794.636 116.628 791.436 124.796 791.436 133.418V201.489C791.436 219.187 804.238 233.255 819.841 233.255H850.647C866.25 233.255 878.652 219.187 878.652 201.489V181.068H990.673V236.432C990.673 262.299 981.872 287.258 965.468 305.41C949.465 323.562 927.861 334 905.057 334H765.431C742.627 334 720.623 323.562 704.62 305.41C688.617 287.258 679.415 262.299 679.815 236.432V98.0217C679.415 72.6087 688.617 47.6495 704.62 29.4973C720.623 11.3451 742.627 0.907597 765.431 0.907597H905.057C927.861 0.907597 949.465 11.3451 965.468 29.4973C981.872 47.6495 990.673 72.6087 990.673 98.0217V153.386Z" fill="#FFFFEB"/>
<path d="M1213.67 9.07608H1322.49V327.193H1213.67V213.742H1132.06V327.193H1023.24V9.07608H1132.06V109.821H1213.67V9.07608Z" fill="#FFFFEB"/>
<path d="M1580.98 0C1628.19 0 1667 43.5652 1667 97.5679V236.432C1667 289.981 1628.19 334 1580.98 334H1440.96C1418.15 334 1396.15 323.562 1379.75 305.41C1363.74 286.804 1354.54 262.299 1354.94 236.432V97.5679C1354.54 71.7011 1363.74 46.7418 1379.75 28.5897C1396.15 10.4375 1417.75 0 1440.96 0H1580.98ZM1554.58 201.035V132.965C1554.58 115.266 1541.78 100.745 1526.17 100.745H1495.37C1479.76 100.745 1466.96 115.266 1466.96 132.965V201.035C1466.96 218.734 1479.76 233.255 1495.37 233.255H1526.17C1541.78 233.255 1554.58 218.734 1554.58 201.035Z" fill="#FFFFEB"/>
<g clip-path="url(#clip0_638_81)">
<path d="M484.096 1.34968C475.374 4.63133 472.413 7.7529 463.131 23.1206C459.85 28.6434 453.048 39.769 448.087 47.9331C433.684 71.545 396.875 133.336 385.512 153.186C374.39 172.476 364.708 189.124 355.025 205.533C341.822 228.024 337.741 236.188 336.781 242.111C334.78 255.078 341.422 266.283 354.225 271.406C358.866 273.167 359.186 273.247 405.277 273.647L451.688 274.047V289.735C451.688 307.344 451.608 307.584 446.247 308.464C434.484 310.465 424.242 318.71 421.601 328.234C420.641 331.916 421.521 333.917 424.882 335.678C428.403 337.519 471.853 337.439 475.374 335.598C480.095 333.197 480.335 331.596 479.695 301.581L479.135 274.607L480.815 273.647C482.495 272.766 504.021 272.606 506.341 273.407C507.061 273.727 507.301 280.53 507.301 303.742C507.301 333.197 507.301 333.677 508.982 335.198C510.582 336.639 512.102 336.799 531.627 337.039C557.073 337.359 561.154 337.039 563.475 334.638C565.955 332.236 565.715 327.594 563.075 323.032C559.314 316.629 552.512 311.986 542.91 309.265C540.269 308.544 537.709 307.504 537.148 306.944C536.108 305.903 535.708 299.26 535.948 284.212L536.108 273.647H574.357C595.322 273.647 616.927 273.247 622.289 272.927C634.611 271.966 639.893 269.885 645.734 263.562C650.935 257.799 652.456 253.237 651.976 244.112C651.655 236.668 650.135 232.586 644.214 222.421C642.533 219.54 637.572 211.055 633.171 203.612C628.77 196.088 619.968 181.2 613.727 170.395C600.523 147.663 584.76 121.57 557.793 77.7882C543.07 54.0162 526.266 26.5624 521.385 18.3182C516.503 10.1541 511.462 4.95149 506.101 2.31016C500.74 -0.251128 489.457 -0.73137 484.096 1.34968ZM469.692 112.366C472.333 117.568 473.053 130.935 470.893 136.458C468.172 143.741 463.851 146.463 459.21 143.982C454.729 141.58 451.528 131.335 452.408 122.371C453.929 107.483 464.091 101.56 469.692 112.366ZM528.346 109.564C531.627 113.406 532.507 117.168 532.427 126.773C532.427 135.978 531.547 138.939 527.866 142.941C525.626 145.422 520.985 145.422 518.664 142.941C511.462 135.257 511.382 115.887 518.584 108.684C521.065 106.203 525.866 106.603 528.346 109.564Z" fill="#FFFFEB"/>
</g>
<defs>
<clipPath id="clip0_638_81">
<rect width="845" height="334" fill="white" transform="translate(80)"/>
</clipPath>
</defs>
</svg>
